<svg width="41" height="24" viewBox="0 0 41 24" fill="none" xmlns="http://www.w3.org/2000/svg">
<g id="Group 1120">
<g id="Group 1118">
<path id="Vector" d="M5.14307 21.0639L5.14307 15.5943C5.14307 14.5608 6.45047 14.0418 7.21539 14.7736L10.0731 17.5073C10.5475 17.9611 10.5475 18.695 10.0731 19.1488L7.21539 21.8825C6.45047 22.6143 5.14307 22.0975 5.14307 21.0639Z" fill="#787878"/>
<path id="Vector 25" d="M7.78595 18.3286L1.17871 18.3286" stroke="#787878" stroke-width="1.6432" stroke-linecap="round"/>
</g>
<g id="Group">
<path id="Vector_2" d="M37.225 0.141602C39.2088 0.141602 40.8216 1.72713 40.8216 3.67732V7.21301C40.8216 9.16321 39.2088 10.7487 37.225 10.7487H15.645C13.6612 10.7487 12.0483 9.16321 12.0483 7.21301V3.67732C12.0483 1.72713 13.6612 0.141602 15.645 0.141602H37.225Z" fill="#DFDFDF"/>
<path id="Vector_3" d="M16.6011 7.33952C17.6655 7.33952 18.5284 6.49126 18.5284 5.44489C18.5284 4.39852 17.6655 3.55029 16.6011 3.55029C15.5367 3.55029 14.6738 4.39852 14.6738 5.44489C14.6738 6.49126 15.5367 7.33952 16.6011 7.33952Z" fill="#787878"/>
<path id="Vector_4" d="M20.9048 5.49365H31.2425" stroke="#787878" stroke-width="2" stroke-linecap="round" stroke-linejoin="round"/>
</g>
<g id="Group_2">
<path id="Vector_5" d="M37.225 13.2515C39.2088 13.2515 40.8216 14.837 40.8216 16.7872V20.3228C40.8216 22.273 39.2088 23.8586 37.225 23.8586H15.645C13.6612 23.8586 12.0483 22.273 12.0483 20.3228V16.7872C12.0483 14.837 13.6612 13.2515 15.645 13.2515H37.225Z" fill="#DFDFDF"/>
<path id="Vector_6" d="M16.6011 20.4494C17.6655 20.4494 18.5284 19.6012 18.5284 18.5548C18.5284 17.5084 17.6655 16.6602 16.6011 16.6602C15.5367 16.6602 14.6738 17.5084 14.6738 18.5548C14.6738 19.6012 15.5367 20.4494 16.6011 20.4494Z" fill="#787878"/>
<path id="Vector_7" d="M20.9048 18.6055H31.2425" stroke="#787878" stroke-width="2" stroke-linecap="round" stroke-linejoin="round"/>
</g>
</g>
</svg>
