<svg width="34" height="24" viewBox="0 0 34 24" fill="none" xmlns="http://www.w3.org/2000/svg">
<g id="Group">
<path id="Vector" d="M1.03502 19.5263C2.10507 19.7023 3.96027 19.9177 5.03031 19.9177C7.38349 19.9177 8.16865 18.8847 8.16865 16.2096V0.515625H12.6619V16.1355C12.6619 21.6641 10.0215 23.8412 4.99326 23.8412C3.31639 23.8412 1.64184 23.5911 0.5 23.3433L1.03502 19.5263Z" fill="#787878"/>
<path id="Vector_2" d="M18.3362 19.2763C19.9065 19.5611 22.5446 19.9178 24.3303 19.9178C27.5404 19.9178 28.9324 18.813 28.9324 16.9231C28.9324 15.1767 27.7558 14.7112 24.1543 13.391C20.9789 12.2121 17.9471 10.929 17.9471 6.86421C17.9471 2.83417 20.9418 0.156738 26.6858 0.156738C28.541 0.156738 30.6116 0.441621 32.5734 0.837676L32.0013 4.7218C30.5746 4.47398 28.2214 4.08255 26.4727 4.08255C24.4415 4.08255 22.5492 4.61526 22.5492 6.50752C22.5492 8.54107 24.6175 8.96724 27.5428 10.0396C30.468 11.1096 33.4998 12.6429 33.4998 16.8536C33.4998 21.0643 30.431 23.8436 24.2631 23.8436C22.2296 23.8436 19.7328 23.5217 17.7363 23.2021L18.3408 19.2786L18.3362 19.2763Z" fill="#787878"/>
</g>
</svg>
