<svg width="200" height="90" viewBox="0 0 200 90" fill="none" xmlns="http://www.w3.org/2000/svg">
<path d="M48.2137 88.5934L30.625 43.1763H30.5648L24.2471 59.4916L35.3231 88.5934H48.2137Z" fill="#7779B8"/>
<path d="M17.6788 43.1763L0.391602 88.5934H12.9808L24.2497 59.4916L18.0405 43.1763H17.6788Z" fill="#7779B8"/>
<path d="M18.0417 43.1763L24.2509 59.4916L30.5686 43.1763H18.0417Z" fill="#2E3192"/>
<path d="M17.6268 22.48H8.38339L6.89841 26.8045H0L9.47251 1.9126H16.5377L26.0122 26.8045H19.1118L17.6268 22.48ZM15.9108 17.5627L13.0051 9.27749L10.0995 17.5627H15.9108Z" fill="black"/>
<path d="M40.2524 14.2254C39.1512 13.6527 38.0741 13.3674 37.0172 13.3674C36.4666 13.3674 36.0205 13.4779 35.6789 13.6969C35.3373 13.916 35.1685 14.2134 35.1685 14.5871C35.1685 14.7861 35.1946 14.9448 35.2509 15.0654C35.3051 15.188 35.4257 15.3025 35.6146 15.413C35.8014 15.5236 36.0767 15.622 36.4404 15.7084C36.8042 15.7949 37.2824 15.9074 37.8752 16.038C39.5269 16.3676 40.7587 16.9564 41.5726 17.8044C42.3864 18.6524 42.7943 19.7355 42.7943 21.0558C42.7943 22.0465 42.5954 22.9387 42.2015 23.7304C41.8057 24.5222 41.2551 25.1894 40.5498 25.7259C39.8444 26.2665 38.9985 26.6844 38.0078 26.9819C37.0172 27.2773 35.928 27.428 34.7405 27.428C32.4517 27.428 30.1951 26.7789 27.9727 25.4787L30.1509 21.2527C31.8227 22.3961 33.4082 22.9688 34.9032 22.9688C35.4538 22.9688 35.9059 22.8463 36.2576 22.6051C36.6092 22.362 36.7861 22.0545 36.7861 21.6807C36.7861 21.4617 36.7579 21.2788 36.7037 21.1362C36.6494 20.9935 36.5329 20.8609 36.3581 20.7403C36.1812 20.6197 35.924 20.5092 35.5824 20.4107C35.2408 20.3123 34.7947 20.2058 34.2461 20.0972C32.3974 19.7235 31.1054 19.1688 30.3659 18.4313C29.6284 17.6939 29.2607 16.677 29.2607 15.3769C29.2607 14.4304 29.4375 13.5763 29.7892 12.8188C30.1408 12.0592 30.6472 11.4161 31.3063 10.8876C31.9654 10.3591 32.7652 9.95117 33.6996 9.66783C34.634 9.38047 35.6748 9.23779 36.8202 9.23779C38.691 9.23779 40.5055 9.60152 42.2658 10.327L40.2524 14.2214V14.2254Z" fill="black"/>
<path d="M57.7123 14.2254C56.6111 13.6527 55.5341 13.3674 54.4771 13.3674C53.9265 13.3674 53.4804 13.4779 53.1388 13.6969C52.7972 13.916 52.6284 14.2134 52.6284 14.5871C52.6284 14.7861 52.6545 14.9448 52.7108 15.0654C52.7651 15.188 52.8856 15.3025 53.0745 15.413C53.2614 15.5236 53.5367 15.622 53.9004 15.7084C54.2641 15.7949 54.7424 15.9074 55.3351 16.038C56.9869 16.3676 58.2187 16.9564 59.0325 17.8044C59.8463 18.6524 60.2543 19.7355 60.2543 21.0558C60.2543 22.0465 60.0553 22.9387 59.6615 23.7304C59.2656 24.5222 58.715 25.1894 58.0097 25.7259C57.3044 26.2665 56.4584 26.6844 55.4678 26.9819C54.4771 27.2773 53.388 27.428 52.2004 27.428C49.9117 27.428 47.6551 26.7789 45.4326 25.4787L47.6109 21.2527C49.2827 22.3961 50.8682 22.9688 52.3632 22.9688C52.9138 22.9688 53.3659 22.8463 53.7175 22.6051C54.0692 22.362 54.246 22.0545 54.246 21.6807C54.246 21.4617 54.2179 21.2788 54.1636 21.1362C54.1094 20.9935 53.9928 20.8609 53.818 20.7403C53.6412 20.6197 53.384 20.5092 53.0424 20.4107C52.7008 20.3123 52.2547 20.2058 51.7061 20.0972C49.8574 19.7235 48.5653 19.1688 47.8259 18.4313C47.0884 17.6939 46.7207 16.677 46.7207 15.3769C46.7207 14.4304 46.8975 13.5763 47.2492 12.8188C47.6008 12.0592 48.1072 11.4161 48.7663 10.8876C49.4254 10.3591 50.2251 9.95117 51.1595 9.66783C52.0939 9.38047 53.1348 9.23779 54.2802 9.23779C56.151 9.23779 57.9655 9.60152 59.7258 10.327L57.7123 14.2214V14.2254Z" fill="black"/>
<path d="M63.3784 18.1881C63.3784 16.9321 63.6316 15.7606 64.138 14.6714C64.6444 13.5823 65.3477 12.6358 66.2499 11.832C67.1522 11.0302 68.2252 10.3972 69.469 9.93499C70.7129 9.47481 72.0713 9.2417 73.5462 9.2417C74.999 9.2417 76.3473 9.46677 77.5912 9.91891C78.833 10.371 79.9121 10.996 80.8264 11.8018C81.7387 12.6036 82.448 13.5622 82.9564 14.6734C83.4608 15.7847 83.714 17.0125 83.714 18.3549C83.714 19.6972 83.4568 20.923 82.9383 22.0343C82.4219 23.1476 81.7106 24.1041 80.8083 24.9079C79.9061 25.7097 78.821 26.3327 77.557 26.7728C76.2911 27.2128 74.9206 27.4339 73.4477 27.4339C71.9949 27.4339 70.6526 27.2128 69.4208 26.7728C68.187 26.3327 67.126 25.7057 66.2358 24.8898C65.3457 24.078 64.6464 23.1014 64.14 21.97C63.6336 20.8366 63.3804 19.5767 63.3804 18.1901L63.3784 18.1881ZM69.684 18.2524C69.684 18.8251 69.7885 19.3476 69.9975 19.8198C70.2065 20.292 70.4818 20.706 70.8234 21.0577C71.163 21.4114 71.5709 21.6846 72.0431 21.8836C72.5153 22.0805 73.0177 22.179 73.5462 22.179C74.0747 22.179 74.575 22.0785 75.0493 21.8836C75.5215 21.6846 75.9294 21.4114 76.271 21.0577C76.6106 20.706 76.8859 20.292 77.0969 19.8198C77.3059 19.3476 77.4103 18.8351 77.4103 18.2845C77.4103 17.756 77.3059 17.2557 77.0969 16.7834C76.8879 16.3112 76.6126 15.8972 76.271 15.5456C75.9294 15.1939 75.5215 14.9186 75.0493 14.7197C74.575 14.5207 74.0767 14.4243 73.5462 14.4243C73.0157 14.4243 72.5174 14.5227 72.0431 14.7197C71.5689 14.9166 71.163 15.1939 70.8234 15.5456C70.4818 15.8972 70.2065 16.3052 69.9975 16.7653C69.7885 17.2275 69.684 17.7239 69.684 18.2504V18.2524Z" fill="black"/>
<path d="M100.532 15.3459C99.4969 14.6406 98.452 14.2909 97.3951 14.2909C96.8224 14.2909 96.2899 14.3894 95.7935 14.5863C95.2972 14.7833 94.8632 15.0646 94.4894 15.4283C94.1157 15.792 93.8243 16.2221 93.6153 16.7164C93.4063 17.2108 93.3018 17.7674 93.3018 18.3823C93.3018 18.9771 93.4063 19.5217 93.6153 20.016C93.8243 20.5104 94.1096 20.9404 94.4733 21.3041C94.837 21.6679 95.2711 21.9472 95.7775 22.1461C96.2838 22.3451 96.8224 22.4435 97.3951 22.4435C98.5183 22.4435 99.5632 22.0577 100.532 21.2881V26.3701C99.0569 27.0072 97.6603 27.3287 96.3401 27.3287C95.1083 27.3287 93.9348 27.1197 92.8236 26.7017C91.7124 26.2837 90.7318 25.6829 89.8858 24.9012C89.0378 24.1195 88.3626 23.1851 87.8562 22.0959C87.3499 21.0067 87.0967 19.791 87.0967 18.4486C87.0967 17.1063 87.3398 15.8805 87.8221 14.7672C88.3064 13.6559 88.9655 12.6994 89.8034 11.8956C90.6393 11.0938 91.636 10.4648 92.7914 10.0127C93.9469 9.56052 95.1847 9.33545 96.5049 9.33545C97.9577 9.33545 99.3 9.6429 100.532 10.2598V15.3459Z" fill="black"/>
<path d="M104.694 3.36595C104.694 2.90376 104.783 2.4697 104.958 2.06177C105.134 1.65584 105.376 1.29815 105.683 0.988685C105.99 0.681228 106.35 0.440086 106.756 0.263248C107.164 0.0884199 107.598 0 108.06 0C108.522 0 108.956 0.0884199 109.364 0.263248C109.77 0.440086 110.128 0.681228 110.437 0.988685C110.745 1.29815 110.988 1.65584 111.163 2.06177C111.34 2.4697 111.426 2.90376 111.426 3.36595C111.426 3.82814 111.34 4.26219 111.163 4.66811C110.988 5.07605 110.745 5.43374 110.437 5.7412C110.13 6.04866 109.77 6.2898 109.364 6.46664C108.956 6.64347 108.522 6.72988 108.06 6.72988C107.598 6.72988 107.164 6.64347 106.756 6.46664C106.348 6.2898 105.99 6.04866 105.683 5.7412C105.376 5.43374 105.134 5.07605 104.958 4.66811C104.783 4.26219 104.694 3.82613 104.694 3.36595ZM111.064 9.86675V26.803H105.09V9.86675H111.064Z" fill="black"/>
<path d="M129.062 9.86596H135.07V26.8022H129.062V24.9193C127.786 26.5269 126.058 27.3287 123.879 27.3287C122.645 27.3287 121.512 27.1036 120.479 26.6515C119.444 26.2014 118.542 25.5684 117.773 24.7545C117.001 23.9406 116.402 22.9821 115.972 21.8829C115.544 20.7817 115.329 19.582 115.329 18.2838C115.329 17.0721 115.538 15.9227 115.956 14.8335C116.374 13.7443 116.959 12.7918 117.706 11.978C118.456 11.1641 119.346 10.5191 120.381 10.0468C121.416 9.57458 122.559 9.33545 123.813 9.33545C125.927 9.33545 127.675 10.0729 129.062 11.5479V9.86596ZM121.534 18.2838C121.534 18.8324 121.633 19.3449 121.832 19.8191C122.031 20.2934 122.298 20.7053 122.639 21.057C122.981 21.4107 123.387 21.6839 123.861 21.8829C124.333 22.0798 124.846 22.1783 125.396 22.1783C125.925 22.1783 126.425 22.0778 126.899 21.8829C127.372 21.6839 127.78 21.4107 128.121 21.057C128.461 20.7053 128.738 20.2974 128.947 19.8372C129.156 19.375 129.261 18.8787 129.261 18.3522C129.261 17.8257 129.156 17.3233 128.947 16.849C128.738 16.3768 128.463 15.9649 128.121 15.6112C127.78 15.2595 127.372 14.9842 126.899 14.7873C126.425 14.5883 125.927 14.4899 125.396 14.4899C124.846 14.4899 124.335 14.5903 123.861 14.7873C123.387 14.9862 122.981 15.2595 122.639 15.6112C122.298 15.9649 122.029 16.3668 121.832 16.8169C121.633 17.269 121.534 17.7594 121.534 18.2859V18.2838Z" fill="black"/>
<path d="M147.024 14.8533V26.8019H141.048V14.8533H139.068V9.86772H141.048V4.78564H147.024V9.86772H150.424V14.8533H147.024Z" fill="black"/>
<path d="M159.032 19.3449C159.032 21.9191 160.241 23.2072 162.663 23.2072C163.961 23.2072 164.939 22.6787 165.6 21.6237H171.378C170.21 25.4981 167.296 27.4352 162.63 27.4352C161.2 27.4352 159.892 27.2202 158.702 26.7922C157.514 26.3622 156.496 25.7513 155.648 24.9595C154.8 24.1678 154.147 23.2213 153.684 22.1201C153.222 21.0209 152.991 19.789 152.991 18.4225C152.991 17.0159 153.21 15.7438 153.652 14.6105C154.092 13.4791 154.719 12.5145 155.535 11.7208C156.349 10.929 157.334 10.3202 158.489 9.89012C159.644 9.46008 160.949 9.24707 162.399 9.24707C163.83 9.24707 165.118 9.46008 166.262 9.89012C167.405 10.3202 168.373 10.9411 169.165 11.755C169.959 12.5688 170.562 13.5655 170.982 14.7431C171.4 15.9207 171.609 17.245 171.609 18.7199V19.3469L159.032 19.3449ZM166.028 15.8785C165.83 15.0425 165.424 14.3713 164.807 13.8649C164.19 13.3585 163.442 13.1053 162.562 13.1053C161.638 13.1053 160.884 13.3485 160.302 13.8308C159.719 14.3151 159.349 14.9983 159.196 15.8785H166.028Z" fill="black"/>
<path d="M64.753 42.9341V88.3512H52.9475V42.9341H64.753Z" fill="black"/>
<path d="M85.9964 60.4631H103.042V42.9341H114.848V88.3512H103.042V69.6185H85.9964V88.3512H74.1909V42.9341H85.9964V60.4631Z" fill="black"/>
<path d="M134.284 57.4512V74.8596C134.284 78.6737 136.131 80.5828 139.826 80.5828C143.521 80.5828 145.366 78.6757 145.366 74.8596V57.4512H156.267V76.9676C156.267 81.1434 154.891 84.2763 152.142 86.3641C149.393 88.452 145.286 89.497 139.826 89.497C134.366 89.497 130.259 88.452 127.508 86.3641C124.757 84.2763 123.383 81.1434 123.383 76.9676V57.4512H134.284Z" fill="black"/>
<path d="M174.884 38.3589V60.5259C177.454 57.8352 180.665 56.4888 184.521 56.4888C186.81 56.4888 188.908 56.9208 190.815 57.7849C192.722 58.649 194.347 59.8145 195.694 61.2775C197.038 62.7424 198.093 64.4706 198.856 66.458C199.618 68.4454 200 70.5635 200 72.8121C200 75.101 199.608 77.2491 198.826 79.2566C198.043 81.2662 196.949 83.0124 195.545 84.4975C194.138 85.9825 192.482 87.1561 190.576 88.0202C188.669 88.8843 186.609 89.3163 184.403 89.3163C180.386 89.3163 177.215 87.8514 174.886 84.9195V88.3537H163.985V38.3589H174.884ZM188.616 72.993C188.616 72.0304 188.435 71.1161 188.074 70.254C187.712 69.3899 187.21 68.6363 186.567 67.9953C185.924 67.3543 185.182 66.8418 184.338 66.458C183.494 66.0782 182.57 65.8853 181.567 65.8853C180.605 65.8853 179.7 66.0662 178.856 66.4299C178.013 66.7916 177.279 67.294 176.658 67.935C176.035 68.576 175.533 69.3296 175.151 70.1937C174.769 71.0578 174.578 71.9701 174.578 72.9327C174.578 73.8952 174.759 74.8015 175.121 75.6455C175.483 76.4875 175.983 77.221 176.626 77.844C177.267 78.4669 178.021 78.9693 178.885 79.3491C179.749 79.7309 180.661 79.9218 181.625 79.9218C182.59 79.9218 183.492 79.7409 184.336 79.3792C185.178 79.0175 185.912 78.5151 186.535 77.8721C187.157 77.231 187.66 76.4875 188.042 75.6455C188.421 74.8015 188.614 73.9194 188.614 72.995L188.616 72.993Z" fill="black"/>
</svg>
