<svg width="169" height="157" viewBox="0 0 169 157" fill="none" xmlns="http://www.w3.org/2000/svg">
<path d="M99.7626 11.374L94.986 8.30209L71.3003 45.0968L76.077 48.1688L99.7626 11.374Z" fill="#6D6FB3"/>
<path d="M115.308 0H88.0266V63.0311H115.308V0Z" fill="#6D6FB3"/>
<path d="M79.5158 0H52.2344V63.0311H79.5158V0Z" fill="#2E3192"/>
<path d="M27.1347 149.245H12.9071L10.6203 155.899H0L14.5836 117.605H25.4581L40.0417 155.899H29.4215L27.1347 149.245ZM24.4919 141.678L20.02 128.932L15.5481 141.678H24.4902H24.4919Z" fill="black"/>
<path d="M54.1388 117.605V155.899H44.1797V117.605H54.1388Z" fill="black"/>
<path d="M72.0602 132.385H86.4404V117.605H96.3995V155.899H86.4404V140.104H72.0602V155.899H62.1011V117.605H72.0602V132.385Z" fill="black"/>
<path d="M112.8 129.845V144.523C112.8 147.739 114.358 149.349 117.476 149.349C120.593 149.349 122.149 147.741 122.149 144.523V129.845H131.346V146.301C131.346 149.821 130.184 152.463 127.865 154.223C125.546 155.984 122.081 156.865 117.476 156.865C112.87 156.865 109.405 155.984 107.084 154.223C104.764 152.463 103.604 149.821 103.604 146.301V129.845H112.8Z" fill="black"/>
<path d="M147.046 113.745V132.435C149.214 130.167 151.923 129.032 155.176 129.032C157.107 129.032 158.877 129.396 160.486 130.124C162.094 130.853 163.466 131.836 164.601 133.069C165.735 134.304 166.625 135.762 167.27 137.437C167.912 139.113 168.234 140.899 168.234 142.795C168.234 144.725 167.904 146.536 167.244 148.229C166.583 149.923 165.661 151.396 164.476 152.648C163.289 153.9 161.893 154.889 160.284 155.618C158.675 156.346 156.938 156.711 155.076 156.711C151.688 156.711 149.013 155.476 147.048 153.003V155.899H137.852V113.745H147.046ZM158.631 142.947C158.631 142.136 158.478 141.365 158.173 140.638C157.868 139.909 157.444 139.274 156.902 138.733C156.359 138.193 155.734 137.761 155.022 137.437C154.31 137.117 153.53 136.954 152.684 136.954C151.872 136.954 151.11 137.107 150.398 137.414C149.686 137.719 149.067 138.142 148.543 138.683C148.018 139.223 147.594 139.859 147.272 140.587C146.95 141.316 146.789 142.085 146.789 142.897C146.789 143.708 146.941 144.472 147.246 145.184C147.551 145.894 147.973 146.512 148.516 147.038C149.057 147.563 149.692 147.986 150.421 148.307C151.15 148.629 151.92 148.79 152.734 148.79C153.547 148.79 154.308 148.637 155.02 148.332C155.731 148.027 156.349 147.604 156.875 147.061C157.4 146.521 157.824 145.894 158.146 145.184C158.467 144.472 158.629 143.728 158.629 142.949L158.631 142.947Z" fill="black"/>
<path d="M48.8491 88.62L45.8283 90.2263C45.352 89.2537 44.7621 88.7657 44.0586 88.7657C43.7229 88.7657 43.4364 88.8776 43.1991 89.0978C42.9601 89.3215 42.8414 89.6044 42.8414 89.9501C42.8414 90.5567 43.5449 91.1582 44.9519 91.7512C46.8912 92.5848 48.1948 93.3524 48.8661 94.0556C49.5374 94.7587 49.873 95.7076 49.873 96.897C49.873 98.422 49.3102 99.6995 48.1846 100.728C47.0895 101.701 45.7707 102.189 44.223 102.189C41.57 102.189 39.6918 100.894 38.5882 98.3084L41.7057 96.8631C42.1379 97.6205 42.4685 98.1017 42.6956 98.3084C43.1398 98.7202 43.6704 98.9252 44.2857 98.9252C45.5198 98.9252 46.1368 98.3627 46.1368 97.2376C46.1368 96.587 45.6605 95.9821 44.7078 95.4195C44.34 95.2365 43.9721 95.0569 43.6042 94.8841C43.2364 94.7113 42.8618 94.5334 42.4837 94.3504C41.4243 93.8302 40.6767 93.3117 40.2427 92.7916C39.6901 92.1308 39.4155 91.2819 39.4155 90.2432C39.4155 88.8691 39.885 87.7339 40.8276 86.8341C41.7904 85.9361 42.9601 85.4871 44.3349 85.4871C46.3589 85.4871 47.8642 86.5309 48.8491 88.62Z" fill="black"/>
<path d="M62.6632 88.62L59.6424 90.2263C59.1661 89.2537 58.5761 88.7657 57.8726 88.7657C57.537 88.7657 57.2505 88.8776 57.0132 89.0978C56.7742 89.3215 56.6555 89.6044 56.6555 89.9501C56.6555 90.5567 57.359 91.1582 58.766 91.7512C60.7053 92.5848 62.0089 93.3524 62.6802 94.0556C63.3514 94.7587 63.6871 95.7076 63.6871 96.897C63.6871 98.422 63.1243 99.6995 61.9987 100.728C60.9036 101.701 59.5848 102.189 58.0371 102.189C55.3841 102.189 53.5059 100.894 52.4023 98.3084L55.5197 96.8631C55.952 97.6205 56.2826 98.1017 56.5097 98.3084C56.9539 98.7202 57.4844 98.9252 58.0998 98.9252C59.3339 98.9252 59.9509 98.3627 59.9509 97.2376C59.9509 96.587 59.4746 95.9821 58.5219 95.4195C58.154 95.2365 57.7862 95.0569 57.4183 94.8841C57.0505 94.7113 56.6759 94.5334 56.2978 94.3504C55.2383 93.8302 54.4908 93.3117 54.0568 92.7916C53.5042 92.1308 53.2296 91.2819 53.2296 90.2432C53.2296 88.8691 53.6991 87.7339 54.6416 86.8341C55.6045 85.9361 56.7742 85.4871 58.149 85.4871C60.173 85.4871 61.6783 86.5309 62.6632 88.62Z" fill="black"/>
<path d="M66.3061 93.7167C66.3061 91.4327 67.1232 89.4926 68.759 87.8914C70.3949 86.2902 72.385 85.4888 74.7345 85.4888C77.084 85.4888 79.0979 86.2953 80.7422 87.9067C82.3662 89.5197 83.1782 91.5004 83.1782 93.8488C83.1782 96.2176 82.3611 98.2034 80.7269 99.8062C79.0809 101.396 77.062 102.192 74.6701 102.192C72.3002 102.192 70.3118 101.38 68.7098 99.7554C67.1079 98.1559 66.3061 96.1396 66.3061 93.7167ZM70.0423 93.7811C70.0423 95.3619 70.4644 96.6124 71.3086 97.5307C72.1748 98.4626 73.3173 98.9269 74.7345 98.9269C76.1635 98.9269 77.3061 98.4677 78.1605 97.5476C79.0148 96.6276 79.4437 95.3992 79.4437 93.8624C79.4437 92.3256 79.0165 91.0989 78.1605 90.1788C77.2942 89.2469 76.1517 88.7827 74.7345 88.7827C73.3377 88.7827 72.207 89.2469 71.3408 90.1788C70.4745 91.109 70.0423 92.3103 70.0423 93.7811Z" fill="black"/>
<path d="M99.262 86.6088V91.4614C98.428 90.4431 97.6804 89.745 97.021 89.3672C96.3718 88.9792 95.6089 88.7826 94.7308 88.7826C93.3561 88.7826 92.2135 89.2638 91.3049 90.2279C90.3946 91.1903 89.9403 92.3967 89.9403 93.8488C89.9403 95.3314 90.3776 96.548 91.2557 97.5002C92.1423 98.4524 93.2747 98.9285 94.6495 98.9285C95.5259 98.9285 96.3006 98.7405 96.9719 98.3609C97.6211 97.9916 98.3839 97.2782 99.262 96.2176V101.038C97.7788 101.806 96.2955 102.192 94.8122 102.192C92.3661 102.192 90.32 101.401 88.674 99.8232C87.028 98.2322 86.2058 96.2582 86.2058 93.898C86.2058 91.5377 87.0398 89.5485 88.7079 87.9253C90.3742 86.3021 92.4203 85.4905 94.8461 85.4905C96.4057 85.4905 97.8771 85.8649 99.2637 86.6105L99.262 86.6088Z" fill="black"/>
<path d="M102.812 79.3535C102.812 78.7147 103.044 78.164 103.51 77.6964C103.976 77.2321 104.534 77 105.183 77C105.844 77 106.407 77.2321 106.872 77.6964C107.338 78.1522 107.57 78.7096 107.57 79.3687C107.57 80.0278 107.338 80.5921 106.872 81.0563C106.417 81.5206 105.86 81.7544 105.2 81.7544C104.541 81.7544 103.976 81.5206 103.51 81.0563C103.046 80.5921 102.812 80.0245 102.812 79.3518V79.3535ZM107.017 85.9276V101.736H103.364V85.9276H107.017Z" fill="black"/>
<path d="M123.325 85.9259H126.995V101.734H123.325V100.077C121.82 101.485 120.201 102.189 118.47 102.189C116.283 102.189 114.476 101.397 113.045 99.8198C111.628 98.2068 110.918 96.1938 110.918 93.7811C110.918 91.4123 111.627 89.4384 113.045 87.8575C114.464 86.2767 116.239 85.4888 118.372 85.4888C120.213 85.4888 121.864 86.2462 123.325 87.761V85.9276V85.9259ZM114.654 93.7811C114.654 95.2975 115.059 96.531 115.871 97.4833C116.705 98.4457 117.755 98.9286 119.021 98.9286C120.374 98.9286 121.467 98.4643 122.301 97.5324C123.135 96.57 123.552 95.3484 123.552 93.8641C123.552 92.3798 123.135 91.1599 122.301 90.1975C121.467 89.2554 120.386 88.7844 119.053 88.7844C117.797 88.7844 116.748 89.2605 115.904 90.2127C115.07 91.1768 114.654 92.3646 114.654 93.7811Z" fill="black"/>
<path d="M135.741 89.3351V101.734H132.087V89.3351H130.53V85.926H132.087V80.1312H135.741V85.926H138.583V89.3351H135.741Z" fill="black"/>
<path d="M155.677 94.6909H144.342C144.438 95.9905 144.862 97.0224 145.608 97.7899C146.354 98.5473 147.313 98.9269 148.481 98.9269C149.392 98.9269 150.143 98.71 150.739 98.2779C151.324 97.8442 151.99 97.0427 152.738 95.8753L155.823 97.5968C155.347 98.4084 154.843 99.1031 154.313 99.6809C153.782 100.26 153.214 100.736 152.607 101.109C152.001 101.484 151.346 101.756 150.643 101.929C149.938 102.102 149.175 102.189 148.353 102.189C145.991 102.189 144.098 101.431 142.669 99.9147C141.24 98.3898 140.524 96.365 140.524 93.8454C140.524 91.3446 141.218 89.3215 142.604 87.7745C144.001 86.2496 145.852 85.4854 148.158 85.4854C150.485 85.4854 152.324 86.2275 153.679 87.7084C155.021 89.1791 155.693 91.2192 155.693 93.8268L155.677 94.6875V94.6909ZM151.926 91.7038C151.417 89.7569 150.188 88.781 148.239 88.781C147.795 88.781 147.378 88.8487 146.99 88.9843C146.6 89.1198 146.245 89.313 145.927 89.5688C145.608 89.823 145.333 90.128 145.106 90.4855C144.879 90.843 144.706 91.248 144.586 91.7038H151.926Z" fill="black"/>
<path d="M31.9236 92.1629H17.7773V95.6414H31.9236V92.1629Z" fill="black"/>
<path d="M25.1545 81.9137H25.1223L32.6709 101.736H37.2632L28.2533 78.0725H22.0235L13.0137 101.736H17.6076L25.1545 81.9137Z" fill="black"/>
</svg>
