<svg width="100" height="100" viewBox="0 0 100 100" fill="none" xmlns="http://www.w3.org/2000/svg">
<g id="aa4k_icon_19" opacity="0.5">
<path id="Vector" d="M71.3 23.4004C67.6 19.7004 61.6 19.7004 57.9 23.4004L29.9 51.4004C23.5 57.8004 23.5 68.2004 29.9 74.6004C36.3 81.0004 46.7 81.0004 53.1 74.6004L76.2 51.5004C77.9 49.8004 80.6 49.8004 82.2 51.5004C83.8 53.2004 83.9 55.9004 82.2 57.5004L59.1 80.6004C49.4 90.3004 33.6 90.3004 23.9 80.6004C14.2 70.9004 14.2 55.1004 23.9 45.4004L51.9 17.4004C58.9 10.4004 70.4 10.4004 77.4 17.4004C84.4 24.4004 84.4 35.9004 77.4 42.9004L50.6 69.7004C46.2 74.1004 39.2 74.1004 34.8 69.7004C30.4 65.3004 30.4 58.3004 34.8 53.9004L56.7 32.0004C58.4 30.3004 61.1 30.3004 62.7 32.0004C64.3 33.7004 64.4 36.4004 62.7 38.0004L40.8 59.9004C39.8 60.9004 39.8 62.6004 40.8 63.6004C41.8 64.6004 43.5 64.6004 44.5 63.6004L71.3 36.8004C75 33.1004 75 27.1004 71.3 23.4004Z" fill="#5459FF"/>
</g>
</svg>
