<svg width="100" height="100" viewBox="0 0 100 100" fill="none" xmlns="http://www.w3.org/2000/svg">
<g id="aa4k_icon_15" opacity="0.5">
<path id="Vector" d="M69.5 11.0996C74.9001 11.0996 79.2 15.4996 79.2 20.7996V79.1996C79.2 84.5996 74.8 88.8996 69.5 88.8996H30.5C25.1 88.8996 20.8 84.4996 20.8 79.1996V20.7996C20.8 15.3996 25.2 11.0996 30.5 11.0996H69.4001H69.5ZM30.5 25.6996V30.5996C30.5 33.2996 32.7001 35.4996 35.4001 35.4996H64.6C67.3 35.4996 69.5 33.2996 69.5 30.5996V25.6996C69.5 22.9996 67.3 20.7996 64.6 20.7996H35.4001C32.7001 20.7996 30.5 22.9996 30.5 25.6996ZM35.4001 40.2996C32.7001 40.2996 30.5 42.4996 30.5 45.1996C30.5 47.8996 32.7001 50.0996 35.4001 50.0996C38.1001 50.0996 40.3 47.8996 40.3 45.1996C40.3 42.4996 38.1001 40.2996 35.4001 40.2996ZM40.3 59.6996C40.3 56.9996 38.1001 54.7996 35.4001 54.7996C32.7001 54.7996 30.5 56.9996 30.5 59.6996C30.5 62.3996 32.7001 64.5996 35.4001 64.5996C38.1001 64.5996 40.3 62.3996 40.3 59.6996ZM35.4001 79.1996H50C52.7001 79.1996 54.9001 76.9996 54.9001 74.2996C54.9001 71.5996 52.7001 69.3996 50 69.3996H35.4001C32.7001 69.3996 30.5 71.5996 30.5 74.2996C30.5 76.9996 32.7001 79.1996 35.4001 79.1996ZM54.9001 45.0996C54.9001 42.3996 52.7001 40.1996 50 40.1996C47.3 40.1996 45.1 42.3996 45.1 45.0996C45.1 47.7996 47.3 49.9996 50 49.9996C52.7001 49.9996 54.9001 47.7996 54.9001 45.0996ZM50 54.8996C47.3 54.8996 45.1 57.0996 45.1 59.7996C45.1 62.4996 47.3 64.6996 50 64.6996C52.7001 64.6996 54.9001 62.4996 54.9001 59.7996C54.9001 57.0996 52.7001 54.8996 50 54.8996ZM69.5 45.0996C69.5 42.3996 67.3 40.1996 64.6 40.1996C61.9 40.1996 59.7001 42.3996 59.7001 45.0996C59.7001 47.7996 61.9 49.9996 64.6 49.9996C67.3 49.9996 69.5 47.7996 69.5 45.0996ZM64.6 54.8996C61.9 54.8996 59.7001 57.0996 59.7001 59.7996C59.7001 62.4996 61.9 64.6996 64.6 64.6996C67.3 64.6996 69.5 62.4996 69.5 59.7996C69.5 57.0996 67.3 54.8996 64.6 54.8996ZM69.5 74.2996C69.5 71.5996 67.3 69.3996 64.6 69.3996C61.9 69.3996 59.7001 71.5996 59.7001 74.2996C59.7001 76.9996 61.9 79.1996 64.6 79.1996C67.3 79.1996 69.5 76.9996 69.5 74.2996Z" fill="#5459FF"/>
</g>
</svg>
