<svg width="100" height="100" viewBox="0 0 100 100" fill="none" xmlns="http://www.w3.org/2000/svg">
<g id="aa4k_icon_16" opacity="0.5">
<path id="Vector" d="M74.3 15.9004C79.7 15.9004 84 20.3004 84 25.6004V74.3004C84 79.7004 79.6 84.0004 74.3 84.0004H25.7C20.3 84.0004 16 79.6004 16 74.3004V25.7004C16 20.3004 20.4 16.0004 25.7 16.0004H74.4L74.3 15.9004ZM67.2 42.8004C68.6 41.4004 68.6 39.1004 67.2 37.6004C65.8 36.2004 63.5 36.2004 62 37.6004L45.1 54.5004L37.9 47.3004C36.5 45.9004 34.2 45.9004 32.7 47.3004C31.3 48.7004 31.3 51.0004 32.7 52.5004L42.4 62.2004C43.8 63.6004 46.1 63.6004 47.6 62.2004L67.1 42.7004L67.2 42.8004Z" fill="#5459FF"/>
</g>
</svg>
