<svg width="100" height="100" viewBox="0 0 100 100" fill="none" xmlns="http://www.w3.org/2000/svg">
<g id="aa4k_icon_6" opacity="0.5">
<path id="Vector" d="M37.4 16.3992H62.6V9.39922C62.6 7.09922 64.5 5.19922 66.8 5.19922C69.1 5.19922 71 7.09922 71 9.39922V16.3992H78C84.2 16.3992 89.2 21.3992 89.2 27.5992V83.5992C89.2 89.7992 84.2 94.7992 78 94.7992H22C15.8 94.7992 10.8 89.7992 10.8 83.5992V27.5992C10.8 21.3992 15.8 16.3992 22 16.3992H29V9.39922C29 7.09922 30.9 5.19922 33.2 5.19922C35.5 5.19922 37.4 7.09922 37.4 9.39922V16.3992ZM19.2 83.5992C19.2 85.0992 20.5 86.3992 22 86.3992H78C79.5 86.3992 80.8 85.0992 80.8 83.5992V38.7992H19.2V83.5992Z" fill="#5459FF"/>
<path id="Vector_2" d="M71.5 47.5996H28.5V55.9996H71.5V47.5996Z" fill="#5459FF"/>
<path id="Vector_3" d="M53.9 66.0996H28.5V74.4996H53.9V66.0996Z" fill="#5459FF"/>
</g>
</svg>
