<svg width="100" height="100" viewBox="0 0 100 100" fill="none" xmlns="http://www.w3.org/2000/svg">
<g id="aa4k_icon_17" opacity="0.5">
<path id="Vector" d="M4.3999 11.1992V88.8992H95.4999V11.1992H4.3999ZM11.7999 81.4992V32.7992H88.1999V81.4992H11.7999Z" fill="#5459FF"/>
<g id="Group">
<path id="Vector_2" d="M80.4001 44H19.6001V52.7H80.4001V44Z" fill="#5459FF"/>
<path id="Vector_3" d="M80.4001 61.1992H19.6001V69.8992H80.4001V61.1992Z" fill="#5459FF"/>
</g>
<path id="Vector_4" d="M81.5999 24.8992L77.5999 20.8992C77.2999 20.5992 77.2 20.1992 77.4 19.7992C77.6 19.3992 77.9 19.1992 78.3 19.1992H86.3C86.7 19.1992 87.0999 19.3992 87.1999 19.7992C87.3999 20.1992 87.1999 20.5992 86.9999 20.8992L82.9999 24.8992C82.5999 25.2992 81.9999 25.2992 81.5999 24.8992Z" fill="white"/>
</g>
</svg>
