<svg width="100" height="100" viewBox="0 0 100 100" fill="none" xmlns="http://www.w3.org/2000/svg">
<g id="aa4k_icon_21" opacity="0.5">
<path id="Vector" d="M4 56.1716C4 47.6589 10.8718 40.7497 19.3385 40.7497H25.4758C27.761 40.7497 29.9325 41.2556 31.8867 42.151C31.7005 43.1921 31.614 44.2756 31.614 45.3744C31.614 50.8954 34.029 55.8529 37.8377 59.2492H7.06107C5.37959 59.2492 4 57.8612 4 56.1716ZM24.6999 13C28.8085 13 32.6052 15.2036 34.659 18.781C36.7138 22.3585 36.7138 26.7666 34.659 30.3441C32.6052 33.9216 28.8085 36.1251 24.6999 36.1251C20.5913 36.1251 16.7947 33.9216 14.7399 30.3441C12.6861 26.7666 12.6861 22.3585 14.7399 18.781C16.7947 15.2036 20.5913 13 24.6999 13ZM22.3996 83.1413C22.3996 72.5039 30.981 63.8759 41.5619 63.8759H58.4381C69.0179 63.8759 77.6004 72.5039 77.6004 83.1413C77.6004 85.2659 75.8898 87 73.7625 87H26.2385C24.1253 87 22.3996 85.2801 22.3996 83.1413ZM36.2006 45.3754C36.2006 40.4179 38.8299 35.8378 43.1005 33.3591C47.3701 30.8803 52.6309 30.8803 56.9005 33.3591C61.1711 35.8378 63.8005 40.4179 63.8005 45.3754C63.8005 50.3329 61.1711 54.913 56.9005 57.3907C52.6309 59.8694 47.3701 59.8694 43.1005 57.3907C38.8299 54.9119 36.2006 50.3319 36.2006 45.3754ZM62.2619 59.2503H62.1622C65.9861 55.8539 68.386 50.8964 68.386 45.3754C68.386 44.2766 68.2864 43.2062 68.1133 42.152C70.0675 41.2414 72.239 40.7508 74.5242 40.7508H80.6615C89.1282 40.7508 96 47.6599 96 56.1726C96 57.8773 94.6194 59.2503 92.9389 59.2503H62.2619ZM77.6004 13C81.709 13 85.5056 15.2036 87.5594 18.781C89.6142 22.3585 89.6142 26.7666 87.5594 30.3441C85.5056 33.9216 81.709 36.1251 77.6004 36.1251C73.4918 36.1251 69.6952 33.9216 67.6414 30.3441C65.5866 26.7666 65.5866 22.3585 67.6414 18.781C69.6952 15.2036 73.4918 13 77.6004 13Z" fill="#5459FF"/>
</g>
</svg>
