<svg width="100" height="100" viewBox="0 0 100 100" fill="none" xmlns="http://www.w3.org/2000/svg">
<g id="aa4k_icon_1" opacity="0.5">
<path id="Vector" d="M18.9 10.0995H46.1C49.2 10.0995 52.2 11.2995 54.4 13.4995L86.5 45.5995C91.1 50.1995 91.1 57.4995 86.5 62.0995L62.2 86.3995C57.6 90.9995 50.3 90.9995 45.7 86.3995L13.5 54.3995C11.3 52.1995 10.1 49.1995 10.1 46.0995V18.7995C10.1 13.9995 14 9.99949 18.9 10.0995ZM24.7 30.4995C24.7 33.6995 27.3 36.2995 30.5 36.2995C33.7 36.2995 36.3 33.6995 36.3 30.4995C36.3 27.2995 33.7 24.6995 30.5 24.6995C27.3 24.6995 24.7 27.2995 24.7 30.4995Z" fill="#5459FF"/>
</g>
</svg>
