<svg width="100" height="100" viewBox="0 0 100 100" fill="none" xmlns="http://www.w3.org/2000/svg">
<g id="aa4k_icon_8" opacity="0.5">
<path id="Vector" d="M6.10001 49.9996C6.10001 34.2996 14.5 19.7996 28.1 11.8996C41.7 3.99961 58.4 3.99961 72 11.8996C85.6 19.6996 94 34.2996 94 49.9996C94 65.6996 85.6 80.1996 72 88.0996C58.4 95.9996 41.7 95.9996 28.1 88.0996C14.5 80.2996 6.10001 65.6996 6.10001 49.9996ZM16 39.1996L17.6 41.9996C19 44.4996 21.4 46.2996 24.1 47.0996L34 49.8996C37 50.6996 39 53.3996 39 56.4996V63.2996C39 65.1996 40.1 66.8996 41.7 67.6996C43.3 68.4996 44.4 70.2996 44.4 72.0996V78.7996C44.4 81.4996 47 83.3996 49.5 82.6996C52.3 81.8996 54.4 79.6996 55.1 76.8996L55.6 74.9996C56.3 72.0996 58.2 69.5996 60.8 68.0996L62.2 67.2996C64.8 65.7996 66.4 63.0996 66.4 60.0996V58.6996C66.4 56.4996 65.5 54.3996 64 52.8996L63.3 52.1996C61.8 50.6996 59.7 49.7996 57.5 49.7996H50.1C48.2 49.7996 46.3 49.2996 44.6 48.3996L38.7 44.9996C38 44.5996 37.4 43.8996 37.1 43.0996C36.6 41.4996 37.3 39.6996 38.9 38.8996L39.9 38.3996C41 37.7996 42.4 37.6996 43.6 38.0996L47.6 39.3996C49 39.8996 50.6 39.3996 51.4 38.0996C52.2 36.8996 52.1 35.2996 51.2 34.1996L48.9 31.3996C47.2 29.2996 47.2 26.2996 48.9 24.2996L51.6 21.1996C53.1 19.3996 53.4 16.8996 52.2 14.8996L51.8 14.1996C51.2 14.1996 50.6 14.1996 50 14.1996C34.1 14.1996 20.6 24.6996 16 39.0996V39.1996ZM85.7 49.9996C85.7 43.6996 84.1 37.6996 81.2 32.5996L76.8 34.3996C74.1 35.4996 72.7 38.4996 73.6 41.1996L76.5 49.8996C77.1 51.6996 78.6 52.9996 80.4 53.4996L85.4 54.7996C85.6 53.2996 85.7 51.6996 85.7 50.0996V49.9996Z" fill="#5459FF"/>
</g>
</svg>
