<svg width="100" height="100" viewBox="0 0 100 100" fill="none" xmlns="http://www.w3.org/2000/svg">
<g id="aa4k_icon_22" opacity="0.5">
<g id="Group">
<path id="Vector" d="M63.9 72.1004H10.3V38.0004H51.7999C55.3999 32.1004 61.7999 28.0004 69.0999 27.6004V22.9004H5.19995V77.4004H69.0999V71.2004C67.2999 71.1004 65.6 70.8004 63.9 70.3004V72.3004V72.1004Z" fill="#5459FF"/>
<path id="Vector_2" d="M64.9 46.1C63.8 48.1 63.8 50.5 64.9 52.5C65.8 54.1 67.2999 55.2 69.0999 55.5V43C67.3999 43.4 65.8 44.5 64.9 46V46.1Z" fill="#5459FF"/>
<g id="Group_2">
<path id="Vector_3" d="M48.9001 45.8012H15.8V51.9012H48.8C48.7001 51.0012 48.6 50.1012 48.6 49.2012C48.6 48.3012 48.7001 46.9012 48.9001 45.7012V45.8012Z" fill="#5459FF" fill-opacity="0.6"/>
<path id="Vector_4" d="M15.8 57.8008V63.9008H54.3C52.7001 62.1008 51.3001 60.0008 50.4001 57.8008H15.8Z" fill="#5459FF" fill-opacity="0.6"/>
</g>
</g>
<path id="Vector_5" d="M87.0999 49.3C87.0999 53 85.8999 56.4 83.8999 59.1L94.0999 69.3C95.0999 70.3 95.0999 71.9 94.0999 72.9C93.0999 73.9 91.4999 73.9 90.4999 72.9L80.3999 62.7C77.5999 64.7 74.1999 65.9 70.5999 65.9C61.3999 65.9 53.8999 58.4 53.8999 49.2C53.8999 40 61.3999 32.5 70.5999 32.5C79.7999 32.5 87.2999 40 87.2999 49.2L87.0999 49.3ZM70.3999 60.8C74.4999 60.8 78.2999 58.6 80.3999 55C82.4999 51.4 82.4999 47 80.3999 43.5C78.2999 39.9 74.4999 37.7 70.3999 37.7C66.2999 37.7 62.4999 39.9 60.3999 43.5C58.2999 47.1 58.2999 51.5 60.3999 55C62.4999 58.6 66.2999 60.8 70.3999 60.8Z" fill="#5459FF"/>
</g>
</svg>
