<svg width="100" height="100" viewBox="0 0 100 100" fill="none" xmlns="http://www.w3.org/2000/svg">
<g id="aa4k_icon_5" opacity="0.5">
<path id="Vector" d="M83.7 88.5H16.3V11.5H83.8V88.6L83.7 88.5ZM23.6 81.2H76.4V18.8H23.6V81.1V81.2Z" fill="#5459FF"/>
<path id="Vector_2" d="M71.2 27.0996H42.9V34.0996H71.2V27.0996Z" fill="#5459FF"/>
<path id="Vector_3" d="M71.1 46.5H47.5V53.5H71.1V46.5Z" fill="#5459FF"/>
<path id="Vector_4" d="M33 57.1008L25.7 49.8008L29.6 45.9008L33 49.3008L39.5 42.8008L43.4 46.7008L33 57.1008Z" fill="#5459FF"/>
<path id="Vector_5" d="M71.1 65.3008H47.5V72.3008H71.1V65.3008Z" fill="#5459FF"/>
<path id="Vector_6" d="M33 75.9992L25.7 68.5992L29.6 64.6992L33 68.1992L39.5 61.6992L43.4 65.5992L33 75.9992Z" fill="#5459FF"/>
</g>
</svg>
