<svg width="100" height="100" viewBox="0 0 100 100" fill="none" xmlns="http://www.w3.org/2000/svg">
<g id="aa4k_icon_3" opacity="0.5">
<g id="Group">
<path id="Vector" d="M26.4 61.7995H31C32.3 61.7995 33.3 62.7995 33.3 64.0995C33.3 65.3995 32.3 66.3995 31 66.3995H17.2C15.9 66.3995 14.9 65.3995 14.9 64.0995C14.9 62.7995 15.9 61.7995 17.2 61.7995H21.8V40.7995L18.5 42.9995C17.4 43.6995 16 43.3995 15.3 42.3995C14.6 41.2995 14.9 39.8995 15.9 39.1995L22.8 34.5995C23.5 34.0995 24.4 34.0995 25.2 34.4995C25.9 34.8995 26.4 35.6995 26.4 36.4995V61.7995Z" fill="#5459FF"/>
<path id="Vector_2" d="M46.5 38.9004C45 38.9004 43.5 39.5004 42.4 40.6004L40.2 42.8004C39.3 43.7004 37.8 43.7004 37 42.8004C36.2 41.9004 36.1 40.4004 37 39.6004L39.2 37.4004C41.2 35.4004 43.8 34.4004 46.6 34.4004C52.3 34.4004 57 39.1004 57 44.8004C57 50.5004 55.9 50.2004 54 52.2004L44.2 62.0004H57C58.3 62.0004 59.3 63.0004 59.3 64.3004C59.3 65.6004 58.3 66.6004 57 66.6004H38.6C37.7 66.6004 36.8 66.0004 36.5 65.2004C36.1 64.3004 36.3 63.4004 37 62.7004L50.7 49.0004C51.8 47.9004 52.4 46.4004 52.4 44.9004C52.4 41.7004 49.8 39.1004 46.6 39.1004L46.5 38.9004Z" fill="#5459FF"/>
<path id="Vector_3" d="M62.1 36.5988C62.1 35.2988 63.1 34.2988 64.4 34.2988H81.6C82.5 34.2988 83.4 34.8988 83.7 35.7988C84 36.6988 83.8 37.6988 83.1 38.2988L73.7 46.8988H75.3C80.7 46.8988 85.1 51.2988 85.1 56.6988C85.1 62.0988 80.7 66.4988 75.3 66.4988H69.7C66.7 66.4988 63.9 64.7988 62.5 62.0988V61.7988C61.8 60.6988 62.3 59.2988 63.4 58.6988C64.5 58.0988 65.9 58.5988 66.5 59.6988V59.9988C67.2 61.1988 68.4 61.8988 69.7 61.8988H75.3C78.2 61.8988 80.5 59.5988 80.5 56.6988C80.5 53.7988 78.2 51.4988 75.3 51.4988H67.8C66.9 51.4988 66 50.8988 65.7 49.9988C65.4 49.0988 65.6 48.0988 66.3 47.4988L75.7 38.8988H64.4C63.1 38.8988 62.1 37.8988 62.1 36.5988Z" fill="#5459FF"/>
</g>
<path id="Vector_4" d="M95.6 84.1004H4.39999V15.9004H95.5V84.0004L95.6 84.1004ZM11.8 76.7004H88.2V23.3004H11.8V76.7004Z" fill="#5459FF"/>
</g>
</svg>
