<svg width="100" height="100" viewBox="0 0 100 100" fill="none" xmlns="http://www.w3.org/2000/svg">
<g id="aa4k_icon_9" opacity="0.5">
<path id="Vector" d="M37.1 21.7C37.1 17.4 40.6 14 44.8 14H55.1C59.4 14 62.8 17.5 62.8 21.7V32C62.8 36.3 59.3 39.7 55.1 39.7H53.8V46.1H78.2C83.2 46.1 87.2 50.1 87.2 55.1V60.2H88.5C92.8 60.2 96.2 63.7 96.2 67.9V78.2C96.2 82.5 92.7 85.9 88.5 85.9H78.2C73.9 85.9 70.5 82.4 70.5 78.2V67.9C70.5 63.6 74 60.2 78.2 60.2H79.5V55.1C79.5 54.4 78.9 53.8 78.2 53.8H53.8V60.2H55.1C59.4 60.2 62.8 63.7 62.8 67.9V78.2C62.8 82.5 59.3 85.9 55.1 85.9H44.8C40.5 85.9 37.1 82.4 37.1 78.2V67.9C37.1 63.6 40.6 60.2 44.8 60.2H46.1V53.8H21.7C21 53.8 20.4 54.4 20.4 55.1V60.2H21.7C26 60.2 29.4 63.7 29.4 67.9V78.2C29.4 82.5 25.9 85.9 21.7 85.9H11.4C7.10001 85.9 3.70001 82.4 3.70001 78.2V67.9C3.70001 63.6 7.20001 60.2 11.4 60.2H12.7V55.1C12.7 50.1 16.7 46.1 21.7 46.1H46.1V39.7H44.8C40.5 39.7 37.1 36.2 37.1 32V21.7Z" fill="#5459FF"/>
</g>
</svg>
