<svg width="100" height="100" viewBox="0 0 100 100" fill="none" xmlns="http://www.w3.org/2000/svg">
<g id="aa4k_icon_4" opacity="0.5">
<path id="Vector" d="M8.79999 50C8.79999 35.3 16.7 21.7 29.4 14.3C42.1 6.9 57.9 6.9 70.6 14.3C83.3 21.7 91.2 35.3 91.2 50C91.2 64.7 83.3 78.3 70.6 85.7C57.9 93.1 42.1 93.1 29.4 85.7C16.7 78.3 8.79999 64.7 8.79999 50ZM83.5 50C83.5 38 77.1 27 66.8 21C56.4 15 43.7 15 33.3 21C22.9 27 16.6 38 16.6 50C16.6 62 23 73 33.3 79C43.7 85 56.4 85 66.8 79C77.2 73 83.5 62 83.5 50Z" fill="#5459FF"/>
<path id="Vector_2" d="M50 28.5996C57.6 28.5996 64.7 32.6996 68.5 39.2996C72.3 45.8996 72.3 54.0996 68.5 60.6996C64.7 67.2996 57.6 71.3996 50 71.3996C42.4 71.3996 35.3 67.2996 31.5 60.6996C27.7 54.0996 27.7 45.8996 31.5 39.2996C35.3 32.6996 42.4 28.5996 50 28.5996Z" fill="#5459FF"/>
</g>
</svg>
