<svg width="100" height="100" viewBox="0 0 100 100" fill="none" xmlns="http://www.w3.org/2000/svg">
<g id="aa4k_icon_10" opacity="0.5">
<path id="Vector" d="M11.7 72.1008V38.0008H51.8C57.2 33.0008 63.7 30.3008 70.4 30.3008V22.8008H6.60001V77.3008H70.5V76.1008C65.7 76.1008 61 74.7008 56.7 72.1008H11.7Z" fill="#5459FF"/>
<path id="Vector_2" d="M45.4 45.8008H17.2V51.9008H42.7C42.7 51.3008 43 50.7008 43.2 50.2008C43.8 48.8008 44.6 47.3008 45.5 45.8008H45.4Z" fill="#5459FF" fill-opacity="0.6"/>
<path id="Vector_3" d="M17.2 57.8008V63.9008H47.8C46.3 61.9008 45 59.9008 43.9 57.8008H17.2Z" fill="#5459FF" fill-opacity="0.6"/>
<path id="Vector_4" d="M79.4 48.1C77.6 45 74.2 43 70.6 43C68.7 43 67 43.5 65.4 44.5C64 45.4 62.7 46.6 61.8 48.1C60 51.2 60 55.1 61.8 58.3C62.7 59.8 63.9 61 65.4 61.9C66.9 62.8 68.7 63.3 70.6 63.4C74.2 63.4 77.6 61.5 79.4 58.3C81.2 55.1 81.2 51.3 79.4 48.1ZM70.6 59.5C68.5 59.5 66.6 58.4 65.4 56.7C64.7 55.7 64.3 54.5 64.3 53.1V52.9C64.7 52.9 65 53 65.4 53C65.4 53 65.5 53 65.6 53C68.1 53 70.2 51.2 70.6 48.8V47C70.6 46.9 70.6 46.7 70.6 46.6H70.8C74.3 46.6 77.1 49.4 77.1 52.9C77.1 56.4 74.3 59.2 70.8 59.2L70.6 59.5Z" fill="#5459FF"/>
<path id="Vector_5" d="M93.2 52.2004C92 49.4004 89.5 45.3004 85.8 41.8004C82.1 38.3004 76.9 35.4004 70.5 35.4004C66.8 35.4004 63.5 36.4004 60.6 37.9004C58.6 39.0004 56.8 40.3004 55.3 41.8004C53.1 43.8004 51.4 46.1004 50.1 48.2004C49.2 49.6004 48.6 50.9004 48.1 52.0004C48.1 52.0004 48.1 52.2004 48 52.3004C47.7 52.9004 47.7 53.6004 48 54.3004C48.4 55.4004 49.1 56.6004 49.9 58.0004C51.1 60.0004 52.7 62.1004 54.8 64.1004C55 64.3004 55.2 64.5004 55.4 64.7004C58.1 67.2004 61.4 69.3004 65.4 70.4004C67 70.8004 68.7 71.1004 70.6 71.1004C77 71.1004 82.1 68.2004 85.9 64.7004C89.6 61.3004 92.1 57.1004 93.3 54.3004C93.6 53.7004 93.6 53.0004 93.3 52.3004L93.2 52.2004ZM83.3 61.8004C80 64.8004 75.8 67.2004 70.6 67.2004C68.8 67.2004 67 66.9004 65.4 66.4004C62.5 65.5004 60 63.8004 58 61.9004C55 59.1004 52.8 55.7004 51.8 53.3004C52.9 50.9004 55 47.5004 58 44.7004C60.1 42.8004 62.6 41.1004 65.4 40.2004C67 39.7004 68.7 39.4004 70.6 39.4004C75.8 39.4004 80 41.7004 83.3 44.8004C86.3 47.6004 88.5 51.0004 89.5 53.4004C88.4 55.8004 86.3 59.2004 83.3 62.0004V61.8004Z" fill="#5459FF"/>
</g>
</svg>
