<svg width="100" height="100" viewBox="0 0 100 100" fill="none" xmlns="http://www.w3.org/2000/svg">
<g id="aa4k_icon_2" opacity="0.5">
<path id="Vector" d="M91.4 6.09961H73.6V93.2996H91.4V6.09961Z" fill="#5459FF" fill-opacity="0.6"/>
<path id="Vector_2" d="M60.4 59.0992L65.4 71.0992C66.2 73.0992 65.3 75.4992 63.3 76.2992C61.3 77.0992 58.9 76.1992 58.1 74.1992L54.1 64.6992H29.5L25.5 74.1992C24.7 76.1992 22.3 77.1992 20.3 76.2992C18.3 75.3992 17.3 73.0992 18.2 71.0992L23.2 59.0992L38.1 23.1992C38.7 21.6992 40.2 20.6992 41.8 20.6992C43.4 20.6992 44.9 21.6992 45.5 23.1992L60.4 59.0992ZM41.8 35.0992L32.8 56.5992H50.7L41.7 35.0992H41.8Z" fill="#5459FF"/>
<path id="Vector_3" d="M95.6 95.6004H4.39999V4.40039H95.5V95.5004L95.6 95.6004ZM11.8 88.2004H88.2V11.8004H11.8V88.2004Z" fill="#5459FF"/>
</g>
</svg>
