<svg width="100" height="100" viewBox="0 0 100 100" fill="none" xmlns="http://www.w3.org/2000/svg">
<g id="aa4k_icon_13" opacity="0.5">
<g id="Group">
<path id="Vector" d="M35.3001 55.4L37.8001 61.3C38.2001 62.3 37.8001 63.5 36.7001 63.9C35.7001 64.3 34.5001 63.9 34.1001 62.8L32.1001 58.1H19.9001L17.9001 62.8C17.5001 63.8 16.3001 64.3 15.3001 63.9C14.3001 63.5 13.8001 62.3 14.2001 61.3L16.7001 55.4L24.1001 37.7C24.4001 37 25.1001 36.5 25.9001 36.5C26.7001 36.5 27.4001 37 27.7001 37.7L35.1001 55.4H35.3001ZM26.1001 43.5L21.7001 54.1H30.6001L26.2001 43.5H26.1001Z" fill="#5459FF"/>
<path id="Vector_2" d="M50.3 36.4004C54.7 36.4004 58.2 39.9004 58.2 44.3004C58.2 48.7004 57.5 48.0004 56.4 49.4004C58.7 50.8004 60.2 53.3004 60.2 56.2004C60.2 60.6004 56.7 64.1004 52.3 64.1004H44.4C42.2 64.1004 40.5 62.3004 40.5 60.2004V40.5004C40.5 38.3004 42.3 36.6004 44.4 36.6004H50.3V36.4004ZM54.3 44.3004C54.3 42.1004 52.5 40.4004 50.4 40.4004H44.5V48.3004H50.4C52.6 48.3004 54.3 46.5004 54.3 44.4004V44.3004ZM44.4 60.1004H52.3C54.5 60.1004 56.2 58.3004 56.2 56.2004C56.2 54.1004 54.4 52.3004 52.3 52.3004H44.4V60.2004V60.1004Z" fill="#5459FF"/>
<path id="Vector_3" d="M82.3001 43.3012C78.5001 39.4012 72.7001 39.4012 68.9001 43.3012C65.1001 47.1012 65.1001 53.4012 68.9001 57.2012C72.7001 61.1012 78.5001 61.1012 82.3001 57.2012C83.1001 56.4012 84.3 56.4012 85.1 57.2012C85.9 58.0012 85.9 59.2012 85.1 60.0012C79.7 65.4012 71.5 65.4012 66.1 60.0012C60.7 54.6012 60.7 45.9012 66.1 40.5012C71.5 35.1012 79.7 35.1012 85.1 40.5012C85.9 41.3012 85.9 42.5012 85.1 43.3012C84.3 44.1012 83.1001 44.1012 82.3001 43.3012Z" fill="#5459FF"/>
</g>
<path id="Vector_4" d="M95.5999 84.1004H4.3999V15.9004H95.4999V84.0004L95.5999 84.1004ZM11.7999 76.7004H88.1999V23.3004H11.7999V76.7004Z" fill="#5459FF"/>
</g>
</svg>
