<svg width="100" height="100" viewBox="0 0 100 100" fill="none" xmlns="http://www.w3.org/2000/svg">
<g id="aa4k_icon_18" opacity="0.5">
<path id="Vector" d="M30.5 16.3008C42.6 9.30078 57.4 9.30078 69.4 16.3008C81.5 23.3008 88.9 36.1008 88.9 50.0008C88.9 63.9008 81.5 76.8008 69.4 83.7008C57.3 90.7008 42.5 90.7008 30.5 83.7008C18.4 76.7008 11 63.9008 11 50.0008C11 36.1008 18.4 23.2008 30.5 16.3008ZM65.8 22.6008C56 16.9008 43.9 16.9008 34.2 22.6008C24.4 28.3008 18.4 38.7008 18.4 50.0008C18.4 61.3008 24.4 71.8008 34.2 77.4008C44 83.1008 56.1 83.1008 65.8 77.4008C75.6 71.7008 81.6 61.3008 81.6 50.0008C81.6 38.7008 75.6 28.2008 65.8 22.6008ZM50 25.7008C52 25.7008 53.7 27.3008 53.7 29.4008V48.1008L66.7 56.7008C68.4 57.8008 68.8 60.1008 67.7 61.8008C66.6 63.5008 64.3 63.9008 62.6 62.8008L48 53.1008C47 52.4008 46.4 51.3008 46.4 50.1008V29.4008C46.4 27.4008 48 25.7008 50.1 25.7008H50Z" fill="#5459FF"/>
</g>
</svg>
