<svg width="100" height="100" viewBox="0 0 100 100" fill="none" xmlns="http://www.w3.org/2000/svg">
<g id="aa4k_icon_20" opacity="0.5">
<path id="Vector" d="M17.4973 11C19.9906 11 21.9973 13.0067 21.9973 15.4987V24.496C21.9973 26.9906 19.9906 28.996 17.4973 28.996H8.49999C6.00666 28.996 4 26.9906 4 24.496V15.4987C4 13.0067 6.00666 11 8.49999 11H17.4973ZM8.49999 40.9946H17.4973C19.9906 40.9946 21.9973 42.9999 21.9973 45.4946V54.4919C21.9973 56.9839 19.9906 58.9906 17.4973 58.9906H8.49999C6.00666 58.9906 4 56.9839 4 54.4919V45.4946C4 42.9999 6.00666 40.9946 8.49999 40.9946ZM17.4973 70.9879C19.9906 70.9879 21.9973 72.9945 21.9973 75.4865V84.4838C21.9973 86.9785 19.9906 88.9838 17.4973 88.9838H8.49999C6.00666 88.9838 4 86.9785 4 84.4838V75.4865C4 72.9945 6.00666 70.9879 8.49999 70.9879H17.4973ZM90.9811 13.9987C94.2985 13.9987 96.9798 16.6813 96.9798 19.9986C96.9798 23.316 94.2985 25.996 90.9811 25.996H36.9933C33.6759 25.996 30.9946 23.316 30.9946 19.9986C30.9946 16.6813 33.6759 13.9987 36.9933 13.9987H90.9811ZM90.9811 43.9946C94.2985 43.9946 96.9798 46.6746 96.9798 49.9919C96.9798 53.3092 94.2985 55.9919 90.9811 55.9919H36.9933C33.6759 55.9919 30.9946 53.3092 30.9946 49.9919C30.9946 46.6746 33.6759 43.9946 36.9933 43.9946H90.9811ZM90.9811 73.9865C94.2985 73.9865 96.9798 76.6692 96.9798 79.9865C96.9798 83.3038 94.2985 85.9838 90.9811 85.9838H36.9933C33.6759 85.9838 30.9946 83.3038 30.9946 79.9865C30.9946 76.6692 33.6759 73.9865 36.9933 73.9865H90.9811Z" fill="#333333"/>
</g>
</svg>
