<svg width="100" height="100" viewBox="0 0 100 100" fill="none" xmlns="http://www.w3.org/2000/svg">
<g id="aa4k_icon_7" opacity="0.5">
<path id="Vector" d="M37.3998 16.3992H62.5998V9.39922C62.5998 7.09922 64.4998 5.19922 66.7998 5.19922C69.0998 5.19922 70.9998 7.09922 70.9998 9.39922V16.3992H77.9998C84.1998 16.3992 89.1998 21.3992 89.1998 27.5992V83.5992C89.1998 89.7992 84.1998 94.7992 77.9998 94.7992H21.9998C15.7998 94.7992 10.7998 89.7992 10.7998 83.5992V27.5992C10.7998 21.3992 15.7998 16.3992 21.9998 16.3992H28.9998V9.39922C28.9998 7.09922 30.8998 5.19922 33.1998 5.19922C35.4998 5.19922 37.3998 7.09922 37.3998 9.39922V16.3992ZM19.1998 83.5992C19.1998 85.0992 20.4998 86.3992 21.9998 86.3992H77.9998C79.4998 86.3992 80.7998 85.0992 80.7998 83.5992V38.7992H19.1998V83.5992Z" fill="#333333"/>
<path id="Vector_2" d="M72.5999 60.3008H54.8999V78.0008H72.5999V60.3008Z" fill="#333333"/>
</g>
</svg>
