<svg width="100" height="100" viewBox="0 0 100 100" fill="none" xmlns="http://www.w3.org/2000/svg">
<g id="aa4k_icon_3" opacity="0.5">
<g id="Group">
<path id="Vector" d="M26.5 61.7995H31.1C32.4 61.7995 33.4 62.7995 33.4 64.0995C33.4 65.3995 32.4 66.3995 31.1 66.3995H17.3C16 66.3995 15 65.3995 15 64.0995C15 62.7995 16 61.7995 17.3 61.7995H21.9V40.7995L18.6 42.9995C17.5 43.6995 16.1 43.3995 15.4 42.3995C14.7 41.2995 15 39.8995 16 39.1995L22.9 34.5995C23.6 34.0995 24.5 34.0995 25.3 34.4995C26 34.8995 26.5 35.6995 26.5 36.4995V61.7995Z" fill="#333333"/>
<path id="Vector_2" d="M46.6001 38.9004C45.1001 38.9004 43.6001 39.5004 42.5001 40.6004L40.3001 42.8004C39.4001 43.7004 37.9001 43.7004 37.1001 42.8004C36.3001 41.9004 36.2001 40.4004 37.1001 39.6004L39.3001 37.4004C41.3001 35.4004 43.9001 34.4004 46.7001 34.4004C52.4001 34.4004 57.1001 39.1004 57.1001 44.8004C57.1001 50.5004 56.0001 50.2004 54.1001 52.2004L44.3001 62.0004H57.1001C58.4001 62.0004 59.4001 63.0004 59.4001 64.3004C59.4001 65.6004 58.4001 66.6004 57.1001 66.6004H38.7001C37.8001 66.6004 36.9001 66.0004 36.6001 65.2004C36.2001 64.3004 36.4001 63.4004 37.1001 62.7004L50.8001 49.0004C51.9001 47.9004 52.5001 46.4004 52.5001 44.9004C52.5001 41.7004 49.9001 39.1004 46.7001 39.1004L46.6001 38.9004Z" fill="#333333"/>
<path id="Vector_3" d="M62.2 36.5988C62.2 35.2988 63.2 34.2988 64.5 34.2988H81.7C82.6 34.2988 83.4999 34.8988 83.7999 35.7988C84.0999 36.6988 83.9 37.6988 83.2 38.2988L73.7999 46.8988H75.4C80.8 46.8988 85.2 51.2988 85.2 56.6988C85.2 62.0988 80.8 66.4988 75.4 66.4988H69.7999C66.7999 66.4988 64 64.7988 62.6 62.0988V61.7988C61.9 60.6988 62.4 59.2988 63.5 58.6988C64.6 58.0988 66 58.5988 66.6 59.6988V59.9988C67.3 61.1988 68.4999 61.8988 69.7999 61.8988H75.4C78.3 61.8988 80.6 59.5988 80.6 56.6988C80.6 53.7988 78.3 51.4988 75.4 51.4988H67.9C67 51.4988 66.0999 50.8988 65.7999 49.9988C65.4999 49.0988 65.7 48.0988 66.4 47.4988L75.7999 38.8988H64.5C63.2 38.8988 62.2 37.8988 62.2 36.5988Z" fill="#333333"/>
</g>
<path id="Vector_4" d="M96.2 84.1004H5V15.9004H96.1V84.0004L96.2 84.1004ZM12.4 76.7004H88.8V23.3004H12.4V76.7004Z" fill="#333333"/>
</g>
</svg>
