<svg width="100" height="100" viewBox="0 0 100 100" fill="none" xmlns="http://www.w3.org/2000/svg">
<g id="aa4k_icon_20" opacity="0.5">
<path id="Vector" d="M10.1773 56.0509C10.4773 56.0149 10.7786 55.9962 11.0786 55.9962H34.9973C38.3146 55.9962 40.9946 58.6762 40.9946 61.9936C40.9946 65.3109 38.3146 67.9935 34.9973 67.9935H25.5493L28.7546 71.1989L28.7733 71.2175C40.4892 82.9335 59.4785 82.9335 71.1945 71.2175C74.4945 67.9362 76.8372 64.0936 78.2798 60.0069C79.3865 56.8949 82.8158 55.2469 85.9278 56.3522C89.0398 57.4576 90.6905 60.8696 89.5838 64.0002C87.5571 69.7362 84.2398 75.1162 79.6665 79.6909C63.2812 96.0748 36.6999 96.0748 20.2973 79.6909L16.9973 76.4109V85.9895C16.9973 89.3068 14.3173 91.9895 11 91.9895C7.68266 91.9895 5 89.3068 5 85.9895V62.0709C5 61.7536 5.02132 61.4322 5.07599 61.1149C5.11466 60.8696 5.16933 60.6282 5.22666 60.4029C5.48933 59.4282 5.99465 58.5282 6.74532 57.7776C7.47732 57.0282 8.37599 56.5216 9.31333 56.2402C9.59466 56.1469 9.87599 56.0922 10.1747 56.0522L10.1773 56.0509ZM21.7066 40.0043C20.6026 43.1163 17.1706 44.7656 14.0586 43.6589C10.9466 42.5536 9.29864 39.1403 10.4053 36.0109C12.4293 30.2563 15.728 24.875 20.3013 20.303C36.7053 3.89901 63.2852 3.89901 79.6892 20.303L82.9705 23.603V14.0043C82.9692 10.6857 85.6492 8.00567 88.9665 8.00567C92.2838 8.00567 94.9665 10.6857 94.9665 14.003V37.9976C94.9665 41.3149 92.2838 43.9976 88.9665 43.9976H64.9905C61.6732 43.9976 58.9932 41.3149 58.9932 37.9976C58.9932 34.6803 61.6732 32.0003 64.9905 32.0003H74.4198L71.2145 28.775C59.4985 17.059 40.5092 17.059 28.7933 28.775C25.4933 32.0549 23.1533 35.8989 21.708 39.9843L21.7066 40.0043Z" fill="#333333"/>
</g>
</svg>
