<svg width="100" height="100" viewBox="0 0 100 100" fill="none" xmlns="http://www.w3.org/2000/svg">
<g id="aa4k_icon_20" opacity="0.5">
<path id="Vector" d="M81.7641 24C89.0775 24 95 29.8172 95 36.9994V62.9994C95 70.1828 89.0775 76 81.7641 76H18.2347C10.9225 76 5 70.1828 5 62.9994V36.9994C5 29.8172 10.9225 24 18.2347 24H81.7641ZM18.2347 34.4C16.7803 34.4 15.5882 35.5697 15.5882 36.9994V62.9994C15.5882 64.4292 16.7803 65.6 18.2347 65.6H81.7641C83.2197 65.6 84.4118 64.4292 84.4118 62.9994V36.9994C84.4118 35.5697 83.2197 34.4 81.7641 34.4H18.2347ZM52.6471 60.3988H20.8824V39.5988H52.6471V60.3988Z" fill="#333333"/>
</g>
</svg>
