<svg width="100" height="100" viewBox="0 0 100 100" fill="none" xmlns="http://www.w3.org/2000/svg">
<g id="aa4k_icon_20" opacity="0.5">
<path id="Vector" d="M57.5485 58.469C73.8189 58.469 87 71.7179 87 88.0697C87 90.792 84.8032 93 82.0946 93H17.9054C15.1968 93 13 90.792 13 88.0697C13 71.7179 26.1811 58.469 42.4515 58.469H57.5485ZM31.6891 39.875C27.9121 33.3003 27.9121 25.1997 31.6891 18.625C35.4662 12.0503 42.4455 8 50.0005 8C57.5555 8 64.5338 12.0503 68.3098 18.625C72.0869 25.1997 72.0869 33.3003 68.3098 39.875C64.5338 46.4497 57.5535 50.5 50.0005 50.5C42.4475 50.5 35.4652 46.4497 31.6891 39.875Z" fill="#333333"/>
</g>
</svg>
